<svg xmlns="http://www.w3.org/2000/svg" width="48" height="48" viewBox="0 0 48 48">
  <g id="instagram" transform="translate(-1401.69 -3488.512)">
    <path id="Path_5" data-name="Path 5" d="M1449.69,3512.512a24,24,0,1,1-24-24A24,24,0,0,1,1449.69,3512.512Z" fill="#1d1a1b"/>
    <g id="Group_5" data-name="Group 5">
      <path id="Path_6" data-name="Path 6" d="M1434.891,3497.512h-18.405a5.8,5.8,0,0,0-5.8,5.8v18.406a5.8,5.8,0,0,0,5.8,5.8h18.405a5.8,5.8,0,0,0,5.8-5.8v-18.406A5.8,5.8,0,0,0,1434.891,3497.512Zm1.664,3.459.662,0v5.084l-5.067.017-.017-5.084Zm-15.147,8.463a5.269,5.269,0,1,1-1,3.078A5.278,5.278,0,0,1,1421.408,3509.434Zm16.36,12.281a2.879,2.879,0,0,1-2.877,2.875h-18.405a2.877,2.877,0,0,1-2.875-2.875v-12.281h4.479a8.2,8.2,0,1,0,15.2,0h4.481Z" fill="#fff"/>
    </g>
  </g>
</svg>
