<svg id="Layer_1" data-name="Layer 1" xmlns="http://www.w3.org/2000/svg" viewBox="0 0 159.52 124.9">
  <defs>
    <style>
      .cls-1, .cls-3 {
        fill: #fff;
      }

      .cls-2 {
        isolation: isolate;
      }

      .cls-3, .cls-4 {
        stroke: #fff;
        stroke-miterlimit: 10;
        stroke-width: 0.5px;
      }

      .cls-4 {
        fill: none;
      }
    </style>
  </defs>
  <path class="cls-1" d="M18.12,89.87h7.63l-7.63-41H9.81l-7.12,41H9.15l1.25-8.3H17ZM11.61,76.14,13.47,62h1l1.86,14.13Z"/>
  <polygon class="cls-1" points="135.74 48.41 143.83 48.41 143.9 81.91 159.52 81.91 159.52 90.32 135.74 90.32 135.74 48.41"/>
  <polygon class="cls-1" points="39.79 48.41 30.3 48.41 30.3 90.25 37.76 90.25 37.75 64.62 43.83 90.25 51.75 90.25 51.75 48.41 44.68 48.41 44.8 65.14 39.79 48.41"/>
  <polygon class="cls-1" points="28.08 51.15 29.53 51.15 29.5 90.63 34.35 90.66 34.35 91.99 28.08 91.99 28.08 51.15"/>
  <polygon class="cls-1" points="37.75 68.25 37.75 74.28 41.79 91.99 45.44 91.99 45.44 90.67 43.08 90.67 37.75 68.25"/>
  <polygon class="cls-1" points="42.36 56.99 43.87 62.04 43.87 51.15 42.36 51.15 42.36 56.99"/>
  <path class="cls-1" d="M67.45,92c-7.17,0-12.82-6.41-13.35-7.92a2.35,2.35,0,0,1-.1-.59l.16-32.28H55.8l-.15,31.48a1.26,1.26,0,0,0,.08.43c.41,1.15,4.48,6.94,10.47,7.67a9.51,9.51,0,0,0,8.19-2.49c.06-.05-.26.29-.31.36A8.25,8.25,0,0,1,67.45,92Z"/>
  <path class="cls-1" d="M67.75,51.2v33l.21,0a1.84,1.84,0,0,0,1.28-.63l.18-.22V51.2Z"/>
  <rect class="cls-1" x="133.2" y="51.2" width="1.68" height="40.87"/>
  <path class="cls-1" d="M100.45,62.51v1.27l-6.41,0,0-4.91a3.06,3.06,0,0,0-.25-1.27,3,3,0,0,0-1.21-1.18A8.76,8.76,0,0,0,89.37,56a2.72,2.72,0,0,1,.31-.82c.23-.35.32-.49.47-.53a8.09,8.09,0,0,1,2.5.21,4.15,4.15,0,0,1,1.83,1,4.37,4.37,0,0,1,.9,2c.12,1,0,4.65,0,4.65Z"/>
  <path class="cls-1" d="M84.75,51.28c-2.21,1.78-4.19,4.76-4.32,6.39a14.14,14.14,0,0,0,2.45,9,85.36,85.36,0,0,0,6.35,7.84c1.83,2.22,2.82,3.46,3.28,5.16a21.36,21.36,0,0,1,.58,5l.25.14c.46-.17.24,0,.62-.26L95,83.84s.1-4.27-1.63-7A41.11,41.11,0,0,0,89.22,72c-1.39-1.49-3.29-3.65-5-5.9a16.51,16.51,0,0,1-2.3-5.42,11.67,11.67,0,0,1,0-4.71C82.2,54.4,84.75,51.28,84.75,51.28Z"/>
  <path class="cls-1" d="M89.63,90.8a9.44,9.44,0,0,1-8.07-5.4,6.74,6.74,0,0,1-.35-1.83l-.08-4.38H79.59l0,4.87c0,.11,0,.5,0,.58a6.26,6.26,0,0,0,.78,2.14,11.45,11.45,0,0,0,8.64,5.29,13.66,13.66,0,0,0,5.3-1,17.15,17.15,0,0,0,4.36-2.64A16.33,16.33,0,0,1,89.63,90.8Z"/>
  <path class="cls-1" d="M116.8,92.06c-7.8,0-10.29-5.24-10.92-7a3.57,3.57,0,0,1-.21-1l.14-23.5a35.72,35.72,0,0,1,.28-3.58c.39-1.41,3-3.76,3-3.76a17.72,17.72,0,0,0-1.55,3.2,24.39,24.39,0,0,0-.25,3.72V82.7a2.94,2.94,0,0,0,.12.84c.46,1.58,2.9,6.92,8.59,7.3a25.17,25.17,0,0,0,6.63-.42,23.79,23.79,0,0,0,3-1.47S122.9,92.06,116.8,92.06Z"/>
  <path class="cls-1" d="M116,55.6a3.48,3.48,0,0,1,.54-.83,7.71,7.71,0,0,1,2.91-.38,2.65,2.65,0,0,1,2.21,1.34,3.57,3.57,0,0,1,.49,1.69V83.7l-.05.31c-.25.27-.33.24-.67.37l-.79.2,0-26.81a3.34,3.34,0,0,0-.23-.93,2.53,2.53,0,0,0-.49-.59,4.81,4.81,0,0,0-2.54-.75A6.62,6.62,0,0,0,116,55.6Z"/>
  <polygon class="cls-1" points="6.8 51.15 0 90.25 1.43 90.25 8.17 51.15 6.8 51.15"/>
  <polygon class="cls-1" points="13.15 75.72 14.79 75.72 13.11 65.28 12.5 69.9 13.15 75.72"/>
  <polygon class="cls-1" points="11.36 82.78 11.15 84.17 15.23 84.14 16.33 91.99 23.52 91.99 23.52 90.39 17.54 90.41 16.5 82.78 11.36 82.78"/>
  <path class="cls-1" d="M57,48.46h7.17V81.37a1.63,1.63,0,0,0,.38,1A3.93,3.93,0,0,0,67.74,84a3.42,3.42,0,0,0,2.61-1.78,2.34,2.34,0,0,0,.36-1.5V48.46h7.16V80.9A5.15,5.15,0,0,1,77,83.77c-1.49,2.2-4.83,6.16-9.56,6.1s-8-3.85-9.52-6A5.11,5.11,0,0,1,57,80.94Z"/>
  <path class="cls-1" d="M96.58,61.52h5.94s2.22-12.46-8.75-13.06c-6.6-.35-11.12,5.16-11.26,9.53-.19,6.14,6.67,12.46,8.73,14.5S96,77,96,81s-3.28,3.73-3.59,3.73h0a4,4,0,0,1-4.2-3.87V77.16l-5.89,0v4.19a7.14,7.14,0,0,0,1.78,5.07,10.66,10.66,0,0,0,8.31,3.42c4,0,9.94-3.63,10.1-9.5a13.63,13.63,0,0,0-4.2-10.68C94.22,66,91.06,62.87,90,60.94a7.46,7.46,0,0,1-1.15-3.59c0-1.65,1.43-3.35,4.19-3.29C97.28,54.15,96.58,61.52,96.58,61.52Z"/>
  <path class="cls-1" d="M130.39,81.9V57.06a3.61,3.61,0,0,0-.5-1.84c-1.21-2.07-4.66-6.84-10.69-6.81s-9.39,4.49-10.64,6.5a3.64,3.64,0,0,0-.54,1.9V82.52a3.66,3.66,0,0,0,.46,1.78c1.07,1.9,4.2,6,11,6,6,0,9.28-4.61,10.41-6.63A3.54,3.54,0,0,0,130.39,81.9Zm-15-.86V57.72a3.57,3.57,0,0,1,1.58-3,4.1,4.1,0,0,1,2.18-.66,3.86,3.86,0,0,1,2.18.64,3.58,3.58,0,0,1,1.58,3V81.14a3.58,3.58,0,0,1-1.61,3,4,4,0,0,1-2.15.63h-.09A3.76,3.76,0,0,1,115.38,81Z"/>
  <g class="cls-2">
    <path class="cls-1" d="M27.9,119.37a11.82,11.82,0,0,1,0-3.71,13.63,13.63,0,0,1,1-3.37,13.89,13.89,0,0,1,1.82-2.92A15.63,15.63,0,0,1,33.12,107a13.33,13.33,0,0,1,2.6-1.65,9.43,9.43,0,0,1,2.63-.84,8.52,8.52,0,0,1,2.19-.07,6,6,0,0,1,1.94.52A4.74,4.74,0,0,1,44,106.15,4.94,4.94,0,0,1,45,108a.26.26,0,0,1,0,.11l0,.12a1.07,1.07,0,0,1-.17.83.86.86,0,0,1-1.36.06,4.54,4.54,0,0,1-.8-1.06,2.89,2.89,0,0,0-1.59-1.12A4.82,4.82,0,0,0,39,106.8a6.62,6.62,0,0,0-2,.69,10.29,10.29,0,0,0-2,1.37,12.8,12.8,0,0,0-1.8,1.93,11.55,11.55,0,0,0-1.41,2.34,11.13,11.13,0,0,0-.8,2.63,8.7,8.7,0,0,0,0,2.79,6,6,0,0,0,.59,1.92,3.64,3.64,0,0,0,.95,1.19,2.76,2.76,0,0,0,1.17.56,3.09,3.09,0,0,0,1.21,0,4.9,4.9,0,0,0,2.45-1.12,7.07,7.07,0,0,0,1.82-2.44,11.35,11.35,0,0,0,1-3.58,16.42,16.42,0,0,0-.13-4.55c0-.16-.05-.33-.08-.49s0-.33-.08-.5a1.58,1.58,0,0,1,.09-1,.66.66,0,0,1,.48-.39,1.2,1.2,0,0,1,.87.16,2,2,0,0,1,.62.67,4.18,4.18,0,0,1,.41,1,9.41,9.41,0,0,1,.26,1.22,14.25,14.25,0,0,1,.13,3.43,13.87,13.87,0,0,1-.6,3.09,12,12,0,0,1-1.22,2.66,10.31,10.31,0,0,1-1.71,2.12,9.52,9.52,0,0,1-2.07,1.49,7.35,7.35,0,0,1-2.32.76,7.44,7.44,0,0,1-2.21,0,5.09,5.09,0,0,1-2-.78,5.39,5.39,0,0,1-1.62-1.75A7.9,7.9,0,0,1,27.9,119.37Z"/>
    <path class="cls-1" d="M45,114.32a1.33,1.33,0,0,1,.43-.6,1.13,1.13,0,0,1,.56-.25,1.23,1.23,0,0,1,.9.19,1.06,1.06,0,0,1,.48.77,1.93,1.93,0,0,1,0,.24.79.79,0,0,1,0,.25c-.09.25-.16.45-.21.62s-.11.33-.15.48-.09.29-.13.43l-.15.5c-.07.24-.15.5-.24.77s-.18.57-.25.86a7,7,0,0,0-.18.84,2.37,2.37,0,0,0,0,.75.52.52,0,0,0,.24.44,1.06,1.06,0,0,0,.52,0,2.3,2.3,0,0,0,.74-.27,6.8,6.8,0,0,0,.74-.53,6.61,6.61,0,0,0,.7-.7c.23-.25.44-.51.64-.76s.38-.5.54-.73.3-.43.41-.61a.73.73,0,0,1,.48-.33.43.43,0,0,1,.42.15.9.9,0,0,1,.23.52,1.7,1.7,0,0,1,0,.66,2,2,0,0,1-.39.72c-.38.53-.76,1-1.16,1.52a14.28,14.28,0,0,1-1.24,1.32,8.55,8.55,0,0,1-1.34,1,3.84,3.84,0,0,1-1.43.51,2.41,2.41,0,0,1-1.74-.29,2.21,2.21,0,0,1-.86-1.61,4.09,4.09,0,0,1,0-1.21,9.12,9.12,0,0,1,.23-1.18c.1-.39.21-.77.34-1.13a9.69,9.69,0,0,0,.29-1l.15-.56c.07-.25.15-.51.24-.77S44.9,114.67,45,114.32Zm1-3.18a2,2,0,0,1,0-.64,1.79,1.79,0,0,1,.24-.63,1.73,1.73,0,0,1,.49-.52,1.62,1.62,0,0,1,.76-.29,1.48,1.48,0,0,1,1.1.13,1,1,0,0,1,.41.7,1.77,1.77,0,0,1,0,.56,2.1,2.1,0,0,1-.21.61,1.49,1.49,0,0,1-.44.5,1.56,1.56,0,0,1-.72.29,1.88,1.88,0,0,1-1.17-.09A.93.93,0,0,1,46,111.14Z"/>
    <path class="cls-1" d="M51.7,113.74a2.12,2.12,0,0,1,.52-.94,1.29,1.29,0,0,1,.73-.39.74.74,0,0,1,.59.14.87.87,0,0,1,.35.64,1.48,1.48,0,0,1,0,.37,1.94,1.94,0,0,1-.08.45,4,4,0,0,1,.71-.89,7.23,7.23,0,0,1,1.07-.87,8.56,8.56,0,0,1,1.25-.71,4.81,4.81,0,0,1,1.26-.4,1.93,1.93,0,0,1,1.21.16,1.33,1.33,0,0,1,.63,1.07,3.77,3.77,0,0,1,0,1,9,9,0,0,1-.22,1.08c-.1.36-.22.72-.35,1.08s-.28.7-.42,1-.26.61-.38.88-.2.48-.26.65a.71.71,0,0,0-.1.51.31.31,0,0,0,.09.18.27.27,0,0,0,.22,0,1,1,0,0,0,.21,0,.72.72,0,0,0,.26-.18,11.4,11.4,0,0,0,1.34-.88q.68-.51,1.29-1c.41-.36.78-.72,1.11-1.07s.61-.67.82-.94a.65.65,0,0,1,.38-.23.38.38,0,0,1,.37.11.78.78,0,0,1,.19.42,2.09,2.09,0,0,1-.12,1,3,3,0,0,1-.66,1l-1.21,1.2c-.36.36-.74.7-1.13,1a13.92,13.92,0,0,1-1.27.94,14.08,14.08,0,0,1-1.63.89c-.22.1-.42.19-.6.25a2.85,2.85,0,0,1-.5.13,1.27,1.27,0,0,1-1.07-.23,1.69,1.69,0,0,1-.48-1,1.1,1.1,0,0,1,0-.18,1.09,1.09,0,0,1,0-.19,2.81,2.81,0,0,1,.08-.93,8.29,8.29,0,0,1,.3-1.07c.13-.37.26-.73.41-1.1s.29-.72.41-1,.22-.62.3-.87a1.43,1.43,0,0,0,.08-.6.49.49,0,0,0-.16-.32.42.42,0,0,0-.35-.09,2.8,2.8,0,0,0-1.51.74,7.45,7.45,0,0,0-1.21,1.44,14.62,14.62,0,0,0-1,1.73c-.29.6-.53,1.14-.75,1.61a7.81,7.81,0,0,0-.33,1c-.09.35-.2.68-.31,1a2.81,2.81,0,0,1-.42.79,1,1,0,0,1-.69.39.89.89,0,0,1-.76-.18,1,1,0,0,1-.37-.67,2.59,2.59,0,0,1,.07-.75q.1-.53.3-1.23c.12-.46.26-1,.43-1.51l.48-1.61c.17-.53.32-1,.48-1.5S51.61,114.07,51.7,113.74Z"/>
    <path class="cls-1" d="M66,112.24c-.22.68-.43,1.34-.63,2s-.38,1.24-.55,1.78c-.07.23-.14.49-.2.78a2.48,2.48,0,0,0,0,.75.49.49,0,0,0,.13.28.36.36,0,0,0,.3.06,2.08,2.08,0,0,0,.66-.27,7.84,7.84,0,0,0,.84-.57c.29-.23.6-.49.92-.77s.63-.58.94-.89.59-.6.86-.9.52-.57.73-.81a.74.74,0,0,1,.37-.21.48.48,0,0,1,.4.14.89.89,0,0,1,.21.48,1.41,1.41,0,0,1,0,.64,1.85,1.85,0,0,1-.43.7c-.49.6-1,1.18-1.49,1.73a19.48,19.48,0,0,1-1.53,1.5,9.92,9.92,0,0,1-1.56,1.1,4.43,4.43,0,0,1-1.57.56,2.21,2.21,0,0,1-.89,0,1.49,1.49,0,0,1-.62-.29,1.52,1.52,0,0,1-.39-.52,2.44,2.44,0,0,1-.2-.68,4.7,4.7,0,0,1,0-1.4,9,9,0,0,1,.31-1.35c.17-.59.35-1.16.53-1.74s.34-1.12.51-1.65l-.56.09a1.62,1.62,0,0,1-1-.09.7.7,0,0,1-.35-.5,1,1,0,0,1,0-.33,1.2,1.2,0,0,1,.2-.39,1.66,1.66,0,0,1,.35-.35,1.26,1.26,0,0,1,.52-.2l1.4-.21L66,104.77a1.84,1.84,0,0,1,.54-.82,1.72,1.72,0,0,1,.77-.34,1.29,1.29,0,0,1,.75.11.78.78,0,0,1,.43.64,1.39,1.39,0,0,1,0,.53c0,.18-.11.39-.2.64s-.12.35-.21.57l-.25.72c-.09.25-.19.51-.28.79s-.19.54-.29.79c-.21.61-.43,1.25-.67,1.92l4.25-.65a4,4,0,0,1,.57,0,1.14,1.14,0,0,1,.47.06.8.8,0,0,1,.34.22,1,1,0,0,1,.17.45,1.5,1.5,0,0,1,0,.3.65.65,0,0,1-.13.28.79.79,0,0,1-.31.25,1.77,1.77,0,0,1-.54.19Z"/>
    <path class="cls-1" d="M74.13,118a3.39,3.39,0,0,1,.09-1.33,11.51,11.51,0,0,1,.5-1.46c.22-.51.46-1,.73-1.56s.51-1.06.74-1.61a3,3,0,0,0,.14-.43.91.91,0,0,0,0-.4.48.48,0,0,0-.17-.33.43.43,0,0,0-.36-.09,2.48,2.48,0,0,0-1,.39,4.29,4.29,0,0,0-.86.75,7.45,7.45,0,0,0-.73,1,12.4,12.4,0,0,0-.62,1.13c-.18.38-.36.76-.51,1.13l-.43,1a7,7,0,0,0-.29,1,8.85,8.85,0,0,1-.28,1,3.15,3.15,0,0,1-.4.8,1,1,0,0,1-1.46.22,1,1,0,0,1-.38-.68,2.42,2.42,0,0,1,0-.76c.07-.35.15-.76.26-1.23s.24-1,.39-1.51l.45-1.59c.15-.52.28-1,.41-1.48s.24-.86.32-1.19a2,2,0,0,1,.49-.93,1.31,1.31,0,0,1,.72-.4.83.83,0,0,1,.62.16,1,1,0,0,1,.36.66,2.35,2.35,0,0,1,0,.78l.64-.83a8.72,8.72,0,0,1,.78-.84,4.76,4.76,0,0,1,1-.69,3.78,3.78,0,0,1,1.28-.41,2.76,2.76,0,0,1,.7,0,1.86,1.86,0,0,1,.63.2,1.61,1.61,0,0,1,.49.45,1.92,1.92,0,0,1,.3.74c.17-.23.36-.47.56-.7a6.09,6.09,0,0,1,.69-.65,4,4,0,0,1,.83-.52,3.8,3.8,0,0,1,1.88-.34,2,2,0,0,1,.74.2,1.59,1.59,0,0,1,.57.49,1.85,1.85,0,0,1,.3.81,3.3,3.3,0,0,1-.13,1.56A7.69,7.69,0,0,1,83.5,112l-.34.56c-.15.23-.28.47-.41.72a6.37,6.37,0,0,0-.33.77,1.5,1.5,0,0,0-.07.71.35.35,0,0,0,.23.34,1.2,1.2,0,0,0,.47,0,2.74,2.74,0,0,0,1.13-.51,8.71,8.71,0,0,0,1.13-1,13.24,13.24,0,0,0,1-1.15c.3-.39.54-.71.71-1a.52.52,0,0,1,.17-.16.48.48,0,0,1,.2-.07.53.53,0,0,1,.45.14.83.83,0,0,1,.28.53,1.48,1.48,0,0,1-.07.6,2.12,2.12,0,0,1-.44.7c-.4.53-.82,1-1.24,1.53A15.09,15.09,0,0,1,85,116.06a8.91,8.91,0,0,1-1.38,1,4,4,0,0,1-1.45.51,2.44,2.44,0,0,1-1.62-.22,1.73,1.73,0,0,1-.81-1.37,3,3,0,0,1,.06-1.27,6.29,6.29,0,0,1,.44-1.21c.19-.39.39-.77.61-1.15a8.68,8.68,0,0,0,.55-1.1,2.29,2.29,0,0,0,.15-.44,1,1,0,0,0,0-.39.53.53,0,0,0-.17-.34.43.43,0,0,0-.36-.08,2.24,2.24,0,0,0-1,.39,4,4,0,0,0-.86.75,6.38,6.38,0,0,0-.74,1c-.22.37-.43.74-.61,1.12s-.36.76-.52,1.14-.3.71-.43,1a7.06,7.06,0,0,0-.28,1c-.08.36-.18.7-.28,1a3.41,3.41,0,0,1-.41.81,1,1,0,0,1-.67.41,1.4,1.4,0,0,1-.35,0,1.42,1.42,0,0,1-.35-.11,1.06,1.06,0,0,1-.29-.22A.62.62,0,0,1,74.13,118Z"/>
    <path class="cls-1" d="M91.55,106a2.26,2.26,0,0,1,1.69.28,2,2,0,0,1,.75,1.38,2.66,2.66,0,0,1-.11,1.2,4.17,4.17,0,0,1-.8,1.38,11,11,0,0,1-1.69,1.57,21.45,21.45,0,0,1-2.75,1.75.86.86,0,0,0,.5.54,1.62,1.62,0,0,0,.93.08,5,5,0,0,0,1.25-.37,11.21,11.21,0,0,0,1.29-.66c.42-.26.82-.52,1.21-.8s.75-.54,1.06-.79l.79-.63.42-.34a.62.62,0,0,1,.2-.12l.17,0a.51.51,0,0,1,.28,0,1,1,0,0,1,.2.15.64.64,0,0,1,.13.19c0,.07,0,.14.05.19a2.19,2.19,0,0,1,0,.29.87.87,0,0,1-.14.4s-.16.19-.38.42-.51.51-.86.83-.76.67-1.23,1A14.14,14.14,0,0,1,93,115a12.57,12.57,0,0,1-1.71.89,7.61,7.61,0,0,1-1.81.53,3.08,3.08,0,0,1-1.43-.09,3.14,3.14,0,0,1-1.15-.66,3.71,3.71,0,0,1-.83-1.08,4.62,4.62,0,0,1-.43-1.38,3.92,3.92,0,0,1,0-1.27,6.55,6.55,0,0,1,.44-1.46,8.08,8.08,0,0,1,.81-1.49,7.69,7.69,0,0,1,1.19-1.36,7.37,7.37,0,0,1,1.54-1.06A6.34,6.34,0,0,1,91.55,106Zm-.2,1.89h-.12l-.11,0a2.34,2.34,0,0,0-.9.34,3.32,3.32,0,0,0-.71.64,4.69,4.69,0,0,0-.53.83,9.21,9.21,0,0,0-.37.88,6.51,6.51,0,0,0-.26.83c-.06.26-.11.48-.13.65.28-.2.57-.43.86-.68l.83-.72.67-.61c.19-.19.33-.31.41-.38a2.81,2.81,0,0,0,.7-.81,1,1,0,0,0,.13-.59.42.42,0,0,0-.17-.3A.54.54,0,0,0,91.35,107.9Z"/>
    <path class="cls-1" d="M97.19,106.78a2,2,0,0,1,.52-.94,1.31,1.31,0,0,1,.73-.4.81.81,0,0,1,.59.15.87.87,0,0,1,.35.64,2.17,2.17,0,0,1,0,.37,2.57,2.57,0,0,1-.08.44,4.46,4.46,0,0,1,.7-.88,8.78,8.78,0,0,1,1.08-.88,8,8,0,0,1,1.25-.7,4.27,4.27,0,0,1,1.26-.4,1.9,1.9,0,0,1,1.2.16,1.31,1.31,0,0,1,.64,1.07,3.7,3.7,0,0,1,0,1,8.77,8.77,0,0,1-.22,1.09q-.15.54-.36,1.08c-.13.36-.27.69-.41,1s-.26.61-.38.87l-.27.66a.74.74,0,0,0-.09.51.26.26,0,0,0,.09.17.26.26,0,0,0,.22,0l.21,0a1,1,0,0,0,.26-.18,12.29,12.29,0,0,0,1.34-.88q.68-.51,1.29-1c.4-.36.77-.72,1.11-1.07s.6-.67.82-.94a.6.6,0,0,1,.19-.17.73.73,0,0,1,.19-.07.42.42,0,0,1,.37.12.75.75,0,0,1,.19.42,2,2,0,0,1-.12.94,3,3,0,0,1-.66,1.06L108,111.17c-.37.36-.75.71-1.14,1a12.66,12.66,0,0,1-1.27.94A13.34,13.34,0,0,1,104,114a5.64,5.64,0,0,1-.59.26,3.83,3.83,0,0,1-.51.13,1.22,1.22,0,0,1-1.06-.24,1.62,1.62,0,0,1-.49-1c0-.06,0-.12,0-.18a1.28,1.28,0,0,0,0-.19,3.44,3.44,0,0,1,.08-.93,10.42,10.42,0,0,1,.31-1.07c.12-.37.26-.74.41-1.1s.28-.72.41-1,.22-.62.3-.87a1.66,1.66,0,0,0,.08-.61.61.61,0,0,0-.16-.32.4.4,0,0,0-.36-.08,2.8,2.8,0,0,0-1.5.74,7.45,7.45,0,0,0-1.21,1.44,14.69,14.69,0,0,0-1,1.73c-.28.6-.53,1.14-.74,1.61a7.32,7.32,0,0,0-.33,1c-.1.35-.2.68-.31,1a3.67,3.67,0,0,1-.42.79,1,1,0,0,1-.7.39.91.91,0,0,1-.76-.18,1,1,0,0,1-.36-.67,2.25,2.25,0,0,1,.07-.75c.07-.35.17-.76.29-1.23s.27-1,.43-1.51.33-1.08.49-1.61.32-1,.47-1.5S97.09,107.11,97.19,106.78Z"/>
    <path class="cls-1" d="M111.46,105.28c-.22.68-.43,1.34-.63,2s-.38,1.24-.55,1.78a6.3,6.3,0,0,0-.2.78,2.2,2.2,0,0,0,0,.75.46.46,0,0,0,.13.28.36.36,0,0,0,.3.06,2.08,2.08,0,0,0,.66-.27,6.89,6.89,0,0,0,.83-.57c.3-.23.6-.49.92-.77s.64-.59.94-.89.6-.6.87-.9.52-.57.73-.82a.76.76,0,0,1,.37-.2.42.42,0,0,1,.39.14.83.83,0,0,1,.22.48,1.43,1.43,0,0,1-.05.64,1.76,1.76,0,0,1-.42.7c-.49.6-1,1.18-1.49,1.73a19.29,19.29,0,0,1-1.53,1.49,10,10,0,0,1-1.56,1.11,4.71,4.71,0,0,1-1.57.56,2.41,2.41,0,0,1-.89,0,1.44,1.44,0,0,1-.62-.3,1.48,1.48,0,0,1-.4-.52,2.75,2.75,0,0,1-.19-.67,4.7,4.7,0,0,1,0-1.4,10.48,10.48,0,0,1,.3-1.35c.18-.59.36-1.17.53-1.74l.52-1.65-.56.08a1.56,1.56,0,0,1-1-.08.7.7,0,0,1-.35-.5.66.66,0,0,1,0-.33,1.33,1.33,0,0,1,.19-.4,2,2,0,0,1,.36-.34,1.16,1.16,0,0,1,.51-.2l1.41-.21,1.91-5.93A1.69,1.69,0,0,1,112,97a1.62,1.62,0,0,1,.77-.34,1.34,1.34,0,0,1,.74.1.79.79,0,0,1,.43.65,1.15,1.15,0,0,1,0,.52c0,.18-.12.4-.2.65l-.21.57c-.08.23-.17.46-.26.71s-.18.52-.28.79-.19.54-.28.8c-.21.61-.43,1.25-.67,1.92l4.24-.65a4.13,4.13,0,0,1,.58,0,1.17,1.17,0,0,1,.47.06.65.65,0,0,1,.33.22.89.89,0,0,1,.18.45,1.4,1.4,0,0,1,0,.29.69.69,0,0,1-.13.29,1,1,0,0,1-.31.25,2,2,0,0,1-.54.19Z"/>
  </g>
  <rect class="cls-1" x="134.88" y="90.65" width="11.01" height="1.41"/>
  <polygon class="cls-1" points="84.66 29.27 84.66 35.93 88.12 37.29 88.12 29.27 84.66 29.27"/>
  <path class="cls-1" d="M55,5.2a14,14,0,0,0-.74,2.36,11.34,11.34,0,0,0,0,2.18c.07.24,8.35,16.55,8.35,16.55l1-.76S55.43,9.72,55.41,9.45a17.65,17.65,0,0,1,0-2.3c.07-.46.47-1.95.47-1.95Z"/>
  <path class="cls-1" d="M59.57,1.09a6.36,6.36,0,0,0-2.7,1.43c-.28.35-.72.85-.61,1.23S65,24.61,65,24.61l1.1-.67S57.56,4.07,57.48,3.65s0-.52,0-.64a7.35,7.35,0,0,1,.94-1.07,8.31,8.31,0,0,1,1.11-.75Z"/>
  <path class="cls-1" d="M64.33,0s-2.11.07-2.41.14-1.38.6-1.38.89,7.58,22.33,7.58,22.33l1-.11S61.85,1.59,61.85,1.3A.62.62,0,0,1,62.3.62c.35-.11,2-.36,2-.36Z"/>
  <path class="cls-1" d="M67.47.62a6.55,6.55,0,0,0-1.55.11.84.84,0,0,0-.36.73c0,.21,5.7,21.56,5.7,21.56l1.13-.13s-5.6-21.2-5.63-21.44-.08-.52.11-.58.4-.09.6-.12Z"/>
  <path class="cls-1" d="M71,3h-.84a1.09,1.09,0,0,0-.22.53c0,.25,4.5,19.23,4.5,19.23h.93S71.05,3.85,71,3.6,71,3,71,3Z"/>
  <path class="cls-1" d="M73.47,31.1l.17.23c.4.47.54.64,1,1.16l11.82-5.76-1.79-.65,0,0Z"/>
  <polygon class="cls-1" points="75.37 33.87 76.61 35.24 88.12 29.28 86.22 28.4 75.37 33.87"/>
  <polygon class="cls-1" points="61.55 30.08 61.35 31.95 74.77 32.47 73.56 31.07 61.55 30.08"/>
  <path class="cls-1" d="M87.6,28.36,87,22.62l1.66-1,.44,0,.58,5.67.24,0s.43-3,.52-3.76.24-2.49.24-2.49L93,19.78l-.16-1.57s-4.15,1.64-5.27,1.88-4.22.45-4.8.49c-.28,0-6.77.13-6.77.13l.3,1.78h7.89l.41,3.56,1.74.66-.11,1.68,1.86.89h.05"/>
  <polygon class="cls-3" points="71.31 32.17 71.31 38.82 74.77 40.19 74.77 32.17 71.31 32.17"/>
  <path class="cls-1" d="M72.22,34.9c-.36-.9-1-2.5-1.44-3.7-1.63.33-4.28.79-4.28.79s-3.86.64-5,1S57.37,34.54,57,34.72L54.48,36v.33L59,37.61a2.28,2.28,0,0,0,.63.09h.73a1.87,1.87,0,0,0,.34,0c.85-.17,4.7-1,5.49-1.1s4.8-1,4.8-1A8.06,8.06,0,0,0,72.22,34.9Z"/>
  <path class="cls-1" d="M68.05,25.54c.22,0,1.7.2,2.56.21a8.23,8.23,0,0,0,1.92-.1c.33-.11.24-.24.2-.32a2.49,2.49,0,0,0-1-.26c-.6-.08-1.43-.16-1.91-.22a10.06,10.06,0,0,1-1.22-.22.57.57,0,0,1-.28-.11,1.57,1.57,0,0,1-.08.31,2,2,0,0,0-.16.33A2.41,2.41,0,0,0,68.05,25.54Z"/>
  <path class="cls-3" d="M70.44,30.35c.42,0,2.59,0,3,0s.94-.14,1.37-.17a2.35,2.35,0,0,0,1-.36,9.16,9.16,0,0,0,3.45-2c.3-.52,2.61-.63,3.36-1.34,0,0,.62-.39.63-.71s0-1.25-.07-1.54a.31.31,0,0,0-.07-.18c-.07-.1-.28,0-.29,0-.6.42-.44,1-4,1.22-1.49,1.45-3.59,1.68-3.39,1.78,0,0-.21.13-.17.56a5.67,5.67,0,0,1,0,1.09,2.66,2.66,0,0,1-.22,1.12,3,3,0,0,1-1.15.44C73.71,30.2,70.44,30.35,70.44,30.35Z"/>
  <path class="cls-4" d="M64.18,25.93c-.19.15-.54.46-.57.74a13.2,13.2,0,0,0,.12,1.78A3.16,3.16,0,0,0,64,29.86a4.28,4.28,0,0,0,1.73.25c.64,0,2.33.26,2.91.27l1.78,0"/>
  <path class="cls-4" d="M83.19,24c-.35-1-4.15-1.35-7.76-.5-.53.1-2-.08-3.41,0-2.14.08-4.09.3-3.68,1.17"/>
  <path class="cls-1" d="M79.08,25.37A4.36,4.36,0,0,0,78,25a7.76,7.76,0,0,0-1.17-.13,9.2,9.2,0,0,0-1.17.08l-1.18.12,1.17-.17a9.41,9.41,0,0,1,1.18-.11,6.74,6.74,0,0,1,1.19.08,4.53,4.53,0,0,1,1.15.36Z"/>
  <path class="cls-4" d="M70.51,25.66a13.51,13.51,0,0,1-2.57-.23c-1.61-.45-6.13.84-2.74,1.09a9.72,9.72,0,0,0,4.84.23c2-.23,3.28-.78,5.51.22"/>
  <g class="cls-2">
    <path class="cls-1" d="M35.22,23.33l-.58-.06V23h1.41l.76,2.4.17.68.16-.68.75-2.4H39.3v.27l-.59.06.43,3.32.46.06V27H38.06v-.26l.49-.06-.24-2.4-.11-1L38,24l-.89,2.8h-.35l-.86-2.56-.32-1-.09,1-.22,2.4.53.06V27H34.38v-.26l.45-.06Z"/>
    <path class="cls-1" d="M41,26.59a2,2,0,0,1-.37-1.3v-2l-.38-.06V23h1.43v.27l-.46.06v2a1.72,1.72,0,0,0,.26,1,.92.92,0,0,0,.75.32.84.84,0,0,0,.73-.35,1.68,1.68,0,0,0,.24-1V23.33l-.45-.06V23H44v.27l-.39.06v2a1.72,1.72,0,0,1-.4,1.25,1.39,1.39,0,0,1-1.05.41A1.48,1.48,0,0,1,41,26.59Z"/>
    <path class="cls-1" d="M45.25,23.33l-.44-.06V23h1.54v.27l-.53.06v3.32l1.38,0,.31-.89.33,0L47.65,27H44.8v-.26l.45-.06Z"/>
    <path class="cls-1" d="M50,23.28l-.91,0-.19,1.12h-.35L48.6,23h3.32L52,24.43h-.34l-.17-1.12-.93,0v3.37l.76.06V27h-2v-.26l.69-.06Z"/>
    <path class="cls-1" d="M53.38,23.33l-.5-.06V23h1.57v.27l-.5.06v3.32l.5.06V27H52.89v-.26l.49-.06Z"/>
  </g>
  <g class="cls-2">
    <path class="cls-1" d="M96.52,26.3,96,26.18l-.24-.07,0-1h.34l.09.69a.7.7,0,0,0,.3.15,1.33,1.33,0,0,0,.45.07.94.94,0,0,0,.62-.18.63.63,0,0,0,.21-.5.56.56,0,0,0-.12-.36.86.86,0,0,0-.3-.26l-.52-.25a5,5,0,0,1-.52-.27,1.37,1.37,0,0,1-.39-.37,1,1,0,0,1-.16-.56.9.9,0,0,1,.16-.53,1,1,0,0,1,.45-.36,1.67,1.67,0,0,1,.69-.14,2.76,2.76,0,0,1,.44,0l.43.1a.83.83,0,0,0,.18,0l0,.9h-.33l-.1-.66a.5.5,0,0,0-.23-.1,1.36,1.36,0,0,0-.36-.05.83.83,0,0,0-.56.16.52.52,0,0,0-.19.44.57.57,0,0,0,.11.36,1.16,1.16,0,0,0,.29.25c.11.07.3.16.55.28l.56.29a1.4,1.4,0,0,1,.38.35.91.91,0,0,1,.16.52,1.06,1.06,0,0,1-.16.54,1.19,1.19,0,0,1-.48.43,1.62,1.62,0,0,1-.79.17A1.85,1.85,0,0,1,96.52,26.3Z"/>
    <path class="cls-1" d="M100.58,24.75l-1.2-2.09-.32-.07v-.26h1.39v.26l-.42.07.75,1.43.17.4.19-.4.71-1.43-.43-.07v-.26h1.21v.26l-.34.07-1.12,2.09V26l.6.06v.26H100V26l.58-.05Z"/>
    <path class="cls-1" d="M103.92,22.66l-.59-.07v-.26h1.42l.75,2.4.18.68.16-.68.75-2.4H108v.26l-.59.07.43,3.31.47.06v.26h-1.54V26l.48-.05-.24-2.4-.11-1-.22.77-.89,2.79h-.35l-.87-2.56-.31-1-.1,1-.21,2.4.53.05v.26h-1.4V26l.46-.05Z"/>
    <path class="cls-1" d="M109.51,22.66l-.42-.07v-.26h.71l.38,0,.55,0a1.64,1.64,0,0,1,1.09.29,1.09,1.09,0,0,1,.32.85,1.28,1.28,0,0,1-.2.74,1.26,1.26,0,0,1-.54.48,1.89,1.89,0,0,1-.81.17h-.51V26l.73.06v.26h-1.74V26l.44-.05Zm1.08,1.87a1,1,0,0,0,.69-.25,1.14,1.14,0,0,0,.26-.84.8.8,0,0,0-.23-.66,1,1,0,0,0-.71-.2,2.36,2.36,0,0,0-.37,0h-.15V24.5A3,3,0,0,0,110.59,24.53Z"/>
    <path class="cls-1" d="M114.31,22.61l-.92,0-.19,1.12h-.35l.09-1.43h3.33l.06,1.43H116l-.17-1.12-.93,0V26l.76.05v.26h-2V26l.7-.05Z"/>
    <path class="cls-1" d="M117.88,26.1a1.5,1.5,0,0,1-.57-.71,2.64,2.64,0,0,1-.2-1.06,2.32,2.32,0,0,1,.24-1.08,1.69,1.69,0,0,1,.64-.71,1.67,1.67,0,0,1,.91-.26,1.57,1.57,0,0,1,1.27.53,2.15,2.15,0,0,1,.44,1.45,2.51,2.51,0,0,1-.23,1.1,1.74,1.74,0,0,1-.66.73,1.62,1.62,0,0,1-.92.26A1.58,1.58,0,0,1,117.88,26.1Zm.17-3.09a2.39,2.39,0,0,0-.3,1.32A2.41,2.41,0,0,0,118,25.6a.95.95,0,0,0,1.63,0,2.49,2.49,0,0,0,.3-1.34,2.26,2.26,0,0,0-.29-1.26.91.91,0,0,0-.81-.45A.93.93,0,0,0,118.05,23Z"/>
    <path class="cls-1" d="M122.15,22.66l-.59-.07v-.26H123l.75,2.4.18.68.16-.68.75-2.4h1.4v.26l-.59.07.43,3.31.47.06v.26H125V26l.48-.05-.24-2.4-.11-1-.22.77-.9,2.79h-.34l-.87-2.56-.31-1-.1,1-.21,2.4.53.05v.26h-1.4V26l.46-.05Z"/>
  </g>
</svg>
