<svg id="Layer_1" data-name="Layer 1" xmlns="http://www.w3.org/2000/svg" viewBox="0 0 31.27 361.3">
  <defs>
    <style>
      .cls-1 {
        fill: #1e1b1c;
      }
    </style>
  </defs>
  <g>
    <path class="cls-1" d="M1.12,5.72c.24-1.15.57-2.43,1-3.84A11.16,11.16,0,0,0,2.53,0l7.4.38V3.62l-5.17.87a4.39,4.39,0,0,0-1,1.85A10,10,0,0,0,3.31,9.4a6,6,0,0,0,1.17,4,4.16,4.16,0,0,0,3.3,1.35A3.82,3.82,0,0,0,10.2,14a7.76,7.76,0,0,0,1.85-2.2A41,41,0,0,0,14,8a19.49,19.49,0,0,1,3.63-5.49A7.48,7.48,0,0,1,23.29.29a7.33,7.33,0,0,1,4.06,1.17,7.83,7.83,0,0,1,2.87,3.46,13.38,13.38,0,0,1,1.05,5.63A18.71,18.71,0,0,1,31,14c-.19,1-.44,2.08-.77,3.25-.18.7-.31,1.22-.36,1.56l-7-.25v-3.2l4.92-.83a3.65,3.65,0,0,0,.7-1.44,7.86,7.86,0,0,0,.35-2.4,5.26,5.26,0,0,0-1.09-3.62A3.74,3.74,0,0,0,24.8,5.85a3.87,3.87,0,0,0-2.56.9,8.06,8.06,0,0,0-1.83,2.17c-.49.85-1.2,2.2-2.11,4a35,35,0,0,1-2.12,3.83,10.15,10.15,0,0,1-2.71,2.76,6.67,6.67,0,0,1-3.9,1.15,8.73,8.73,0,0,1-4.2-1.11A8.42,8.42,0,0,1,2.06,16,13.64,13.64,0,0,1,.75,9.6,19.66,19.66,0,0,1,1.12,5.72Z"/>
    <path class="cls-1" d="M27.87,26.62l.53-3.2h2.48l-.05,21.32-6.72.5v-2.8l4-1.31.38-8.64-10.76,0L17.81,38l3.27.64v2.56l-9.68,0V38.66L14.85,38,15,32.47l-11.28,0,.46,9.68,5.11,2.34-.85,3L1.11,46.4l0-23h2.4L4,26.56Z"/>
    <path class="cls-1" d="M27.81,52.86l.53-3h2.48l0,6c0,.56,0,1.42.08,2.6q.15,2.31.15,4.2a17.22,17.22,0,0,1-1,6.57,6.64,6.64,0,0,1-2.92,3.44,10.29,10.29,0,0,1-4.83,1,10,10,0,0,1-7.83-3.16q-2.79-3.15-2.78-8.71a28.14,28.14,0,0,1,.13-3.16l-7.88,0L3.47,64H1.07l0-14.4H3.5l.39,3.16Zm-13.7,8.93A5.42,5.42,0,0,0,16,66.09q1.86,1.62,6.18,1.64,3.36,0,4.9-1.45a5.86,5.86,0,0,0,1.55-4.46,18.67,18.67,0,0,0-.15-2.32,5.34,5.34,0,0,1-.08-.8l-14,0A15.87,15.87,0,0,0,14.11,61.79Z"/>
    <path class="cls-1" d="M28.09,85.82l-.18-5.72-8.72-1.58V75.16l11.56.71-.06,25.8-11.56.45V99l8.73-1.54.21-5.64L3.8,91.72l-.41,5.6H1L1,80.64h2.4l.38,5.12Z"/>
    <path class="cls-1" d="M27.68,107.74l.53-3.2h2.48l-.05,21.32-6.72.5v-2.8l4-1.31.38-8.64-10.76,0,.11,5.57,3.28.64v2.56l-9.68,0v-2.56l3.44-.63.13-5.56-11.28,0L4,123.24l5.11,2.34-.85,3-7.31-1,0-23h2.4l.39,3.16Z"/>
    <path class="cls-1" d="M27.62,135.62l.53-4.32h2.48l0,12.48L13.39,148.5l-4.68,1.11,4.67,1,17.19,4.76,0,12.36H28.06l-.51-4.36L3.67,166.48l-.45,3.24H.82L.85,157h2.4l.39,3.52,17.52-1.72,7.33-.74-6.16-1.49L2.1,150.68v-4.24l19.22-5.88,7.2-2-7.32-.62L3.7,136.36l-.41,4H.89l0-11.12h2.4l.4,3.36Z"/>
    <path class="cls-1" d="M27.53,174.62l.53-3.12h2.48l0,6c0,.91.05,2.08.15,3.52,0,.35,0,.76.08,1.24s0,1,0,1.69c0,4-.59,6.84-1.72,8.45A5.81,5.81,0,0,1,24,194.77,7.12,7.12,0,0,1,19.07,193a7.54,7.54,0,0,1-2.41-4.67,9.45,9.45,0,0,1-1.82,6.22,6.26,6.26,0,0,1-5.12,2.25A8.41,8.41,0,0,1,3,193.84q-2.5-2.93-2.49-9.77c0-1.2,0-2.3.12-3.32,0-.26,0-.71.07-1.35s.06-1.3.06-2l0-6h2.4l.39,3.16Zm-10,7.57v1.88A4.35,4.35,0,0,0,19,187.72a6.78,6.78,0,0,0,4.27,1.21,5.2,5.2,0,0,0,3.85-1.23,5.86,5.86,0,0,0,1.21-4.12c0-.51-.05-1.56-.16-3.16l-10.64,0C17.53,180.69,17.51,181.29,17.51,182.19ZM3.07,183.88q0,3.41,1.58,4.92a6.51,6.51,0,0,0,4.64,1.54c2,0,3.34-.46,4.18-1.38a6.27,6.27,0,0,0,1.27-4.37c0-2.24,0-3.64-.07-4.2l-11.24,0A11.27,11.27,0,0,0,3.07,183.88Z"/>
    <path class="cls-1" d="M27.46,202.82l.53-3.2h2.48l0,21.32-6.72.51v-2.8l4-1.31.38-8.64-10.76,0,.11,5.56,3.27.65v2.56l-9.68,0v-2.56l3.45-.63.13-5.56-11.28,0,.46,9.68,5.11,2.33-.85,3L.7,222.59l.05-23h2.4l.39,3.16Z"/>
    <path class="cls-1" d="M3.09,225.8,3.48,229,27.4,229l.57-3h2.44v5.8c0,.51,0,1.07,0,1.68s.05,1.08.08,1.4c.1,1.39.15,2.54.15,3.44a21,21,0,0,1-.86,6.6,6.7,6.7,0,0,1-2.56,3.6,8.26,8.26,0,0,1-4.53,1.11,9.49,9.49,0,0,1-5.11-1.5,7.54,7.54,0,0,1-3.23-4.28,6.74,6.74,0,0,1-2.49,2.83,36.62,36.62,0,0,1-4.69,2.63c-1.3.66-2.25,1.17-2.82,1.53a2,2,0,0,0-1,1.06L3,253.24H.63v-6.8c0-.42.44-.87,1.3-1.33a41.88,41.88,0,0,1,4.11-1.81c2.19-.88,3.89-1.63,5.12-2.27a4.64,4.64,0,0,0,2.29-2v-4.12l-10,0-.41,3.68H.66l0-12.72Zm14.44,16.31a7.92,7.92,0,0,0,4.92,1.3,6.38,6.38,0,0,0,4.32-1.25c.94-.84,1.41-2.29,1.41-4.34a16.91,16.91,0,0,0-.09-1.9,9.42,9.42,0,0,1-.1-1l-12,0a19.29,19.29,0,0,0-.09,2.32v1.36A4.26,4.26,0,0,0,17.53,242.11Z"/>
    <path class="cls-1" d="M10,273.22c2.63,2.38,5.18,3.57,7.63,3.57a4.14,4.14,0,0,0,3.14-1.21,4.7,4.7,0,0,0,1.19-3.42,7.22,7.22,0,0,0-.77-3.5,14.75,14.75,0,0,0-2-2.78l2.2-1.52a11.18,11.18,0,0,1,2,2.31,14.85,14.85,0,0,1,1.74,3.5,12.34,12.34,0,0,1,.69,4,11,11,0,0,1-1,4.9,6.94,6.94,0,0,1-2.65,2.94,7.19,7.19,0,0,1-3.64.95c-2.56,0-5.14-1.24-7.72-3.7a40.36,40.36,0,0,1-7.09-9.38l1,11.6,3.36,1.53-.53,2.52-7-1.18,0-19.47,2.16-.84A38.28,38.28,0,0,0,10,273.22Z"/>
    <path class="cls-1" d="M3.56,291.7c2.28-1.79,5.38-2.69,9.3-2.68a14.82,14.82,0,0,1,7.06,1.58,10.64,10.64,0,0,1,4.35,4.15,11.5,11.5,0,0,1,1.45,5.74c0,3.44-1.11,6-3.28,7.76s-5.26,2.58-9.23,2.57a15.62,15.62,0,0,1-7.1-1.51,10.67,10.67,0,0,1-4.49-4.07,11,11,0,0,1-1.5-5.73C.13,296.1,1.27,293.5,3.56,291.7Zm1.53,11.93a19.19,19.19,0,0,0,7.69,1.19q5.45,0,8-1.08A3.83,3.83,0,0,0,23.32,300q0-5-10-5c-3.58,0-6.26.38-8.06,1.17a3.94,3.94,0,0,0-.14,7.44Z"/>
    <path class="cls-1" d="M9.86,323.7q4,3.57,7.63,3.57a4.16,4.16,0,0,0,3.15-1.21,4.73,4.73,0,0,0,1.18-3.42,7.1,7.1,0,0,0-.77-3.5,15.08,15.08,0,0,0-2-2.78l2.2-1.52a10.91,10.91,0,0,1,2,2.31,14.84,14.84,0,0,1,1.73,3.5,12.34,12.34,0,0,1,.69,4,10.88,10.88,0,0,1-1,4.9A6.88,6.88,0,0,1,22,332.53a7.16,7.16,0,0,1-3.64,1q-3.84,0-7.71-3.7a40.38,40.38,0,0,1-7.1-9.38l1,11.6L8,333.53l-.53,2.52-7-1.18,0-19.47,2.16-.84A38.53,38.53,0,0,0,9.86,323.7Z"/>
    <path class="cls-1" d="M3.44,342.18q3.42-2.69,9.3-2.68a14.82,14.82,0,0,1,7.06,1.58,10.64,10.64,0,0,1,4.35,4.15A11.5,11.5,0,0,1,25.6,351q0,5.16-3.28,7.76c-2.18,1.72-5.25,2.58-9.23,2.57A15.58,15.58,0,0,1,6,359.79a10.61,10.61,0,0,1-4.49-4.07A11.05,11.05,0,0,1,0,350C0,346.58,1.15,344,3.44,342.18ZM5,354.11a19.22,19.22,0,0,0,7.7,1.19q5.43,0,8-1.08a3.83,3.83,0,0,0,2.55-3.73q0-5-10-5a20.89,20.89,0,0,0-8.06,1.16A3.94,3.94,0,0,0,5,354.11Z"/>
  </g>
</svg>
