<svg xmlns="http://www.w3.org/2000/svg" width="48.003" height="48" viewBox="0 0 48.003 48">
  <g id="tweeter" transform="translate(-363.69 -3402.512)">
    <path id="Path_3" data-name="Path 3" d="M411.693,3426.512a24,24,0,1,1-24-24A24,24,0,0,1,411.693,3426.512Z" fill="#1d1a1b"/>
    <g id="Group_3" data-name="Group 3">
      <path id="Path_4" data-name="Path 4" d="M401.864,3414.954a12.446,12.446,0,0,1-3.91,1.472,6.184,6.184,0,0,0-4.492-1.914,6.108,6.108,0,0,0-6.154,6.059,6.037,6.037,0,0,0,.158,1.38,17.567,17.567,0,0,1-12.687-6.33,5.963,5.963,0,0,0-.834,3.047,6.035,6.035,0,0,0,2.74,5.042,6.212,6.212,0,0,1-2.788-.758v.076a6.09,6.09,0,0,0,4.938,5.942,6.3,6.3,0,0,1-2.781.1,6.152,6.152,0,0,0,5.75,4.207,12.479,12.479,0,0,1-7.646,2.594,12.713,12.713,0,0,1-1.468-.085,17.632,17.632,0,0,0,9.436,2.722,17.248,17.248,0,0,0,17.512-17.238c0-.263,0-.525-.016-.785a12.389,12.389,0,0,0,3.071-3.137,12.408,12.408,0,0,1-3.536.954A6.09,6.09,0,0,0,401.864,3414.954Z" fill="#fff"/>
    </g>
  </g>
</svg>
