<svg xmlns="http://www.w3.org/2000/svg" width="48" height="48" viewBox="0 0 48 48">
  <g id="youtube" transform="translate(-1573.69 -3402.512)">
    <path id="Path_7" data-name="Path 7" d="M1621.69,3426.512a24,24,0,1,1-24-24A24,24,0,0,1,1621.69,3426.512Z" fill="#1d1a1b"/>
    <g id="Group_9" data-name="Group 9">
      <path id="Path_8" data-name="Path 8" d="M1605.713,3431.7a.6.6,0,0,0-.518.215,1.16,1.16,0,0,0-.158.7v.785h1.342v-.785a1.173,1.173,0,0,0-.16-.7A.58.58,0,0,0,1605.713,3431.7Z" fill="#fff"/>
      <g id="Group_8" data-name="Group 8">
        <path id="Path_9" data-name="Path 9" d="M1600.481,3431.675a.74.74,0,0,0-.323.075,1.111,1.111,0,0,0-.312.238v4.836a1.352,1.352,0,0,0,.359.277.883.883,0,0,0,.367.083.493.493,0,0,0,.411-.166.873.873,0,0,0,.13-.535v-4.009a.955.955,0,0,0-.158-.6A.581.581,0,0,0,1600.481,3431.675Z" fill="#fff"/>
        <g id="Group_7" data-name="Group 7">
          <path id="Path_10" data-name="Path 10" d="M1607.209,3425.512H1588.17a5.8,5.8,0,0,0-5.48,5.894v4.5a5.543,5.543,0,0,0,5.48,5.6h19.039a5.543,5.543,0,0,0,5.481-5.6v-4.5A5.8,5.8,0,0,0,1607.209,3425.512Zm-15.039,3.795h-1.77v8.992h-1.71v-8.992h-1.768v-1.529h5.248Zm5,8.992h-1.518v-.851a3.213,3.213,0,0,1-.875.717,1.792,1.792,0,0,1-.882.249.928.928,0,0,1-.791-.348,1.7,1.7,0,0,1-.268-1.04v-6.49h1.518v5.956a.679.679,0,0,0,.093.4.37.37,0,0,0,.313.124.862.862,0,0,0,.424-.163,2.061,2.061,0,0,0,.468-.417v-5.9h1.518Zm5.508-1.6a1.958,1.958,0,0,1-.358,1.264,1.246,1.246,0,0,1-1.031.439,1.779,1.779,0,0,1-.795-.169,1.981,1.981,0,0,1-.648-.525v.594h-1.533v-10.521h1.533v3.388a2.407,2.407,0,0,1,.65-.538,1.453,1.453,0,0,1,.7-.186,1.3,1.3,0,0,1,1.1.5,2.348,2.348,0,0,1,.381,1.45Zm5.262-2.091h-2.9v1.462a1.716,1.716,0,0,0,.149.851.557.557,0,0,0,.515.236.621.621,0,0,0,.528-.2,1.721,1.721,0,0,0,.15-.886v-.353h1.561v.4a2.518,2.518,0,0,1-.573,1.8,2.232,2.232,0,0,1-1.7.6,2.065,2.065,0,0,1-1.607-.64,2.509,2.509,0,0,1-.586-1.76v-3.487a2.21,2.21,0,0,1,.646-1.646,2.253,2.253,0,0,1,1.66-.635,2.1,2.1,0,0,1,1.6.589,2.361,2.361,0,0,1,.559,1.692Z" fill="#fff"/>
          <path id="Path_11" data-name="Path 11" d="M1588.373,3411.512l2.289,7v4.592h1.924v-4.809l2.24-6.783h-1.957l-1.189,4.635h-.121l-1.25-4.635Z" fill="#fff"/>
          <path id="Path_12" data-name="Path 12" d="M1595.652,3414.925a1.981,1.981,0,0,0-.687,1.584v4.432a2.3,2.3,0,0,0,.67,1.734,2.5,2.5,0,0,0,1.8.646,2.574,2.574,0,0,0,1.83-.625,2.262,2.262,0,0,0,.662-1.721v-4.417a2.085,2.085,0,0,0-.676-1.6,2.484,2.484,0,0,0-1.74-.62A2.777,2.777,0,0,0,1595.652,3414.925Zm2.532,1.518v4.659a.729.729,0,0,1-.2.542.774.774,0,0,1-.553.2.673.673,0,0,1-.522-.193.762.762,0,0,1-.181-.544v-4.659a.588.588,0,0,1,.193-.453.747.747,0,0,1,.51-.171.829.829,0,0,1,.547.171A.563.563,0,0,1,1598.184,3416.443Z" fill="#fff"/>
          <path id="Path_13" data-name="Path 13" d="M1606.186,3423.1v-8.55h-1.709v6.491a2.342,2.342,0,0,1-.526.46.981.981,0,0,1-.478.179.41.41,0,0,1-.348-.137.718.718,0,0,1-.109-.438v-6.555h-1.707v7.147a1.821,1.821,0,0,0,.3,1.143,1.065,1.065,0,0,0,.892.385,2.1,2.1,0,0,0,.99-.274,3.623,3.623,0,0,0,.985-.8v.946Z" fill="#fff"/>
        </g>
      </g>
    </g>
  </g>
</svg>
